<svg width="218" height="50" viewBox="0 0 218 50" fill="none" xmlns="http://www.w3.org/2000/svg">
  <title>TicTacToe Online's black logo</title>
  <path d="M27.168 11.736V16.968H16.944V45H10.848V16.968H0.624V11.736H27.168ZM37.3489 45H31.5409V19.896H37.3489V45ZM37.9729 12.552C37.9729 13.64 37.6209 14.504 36.9169 15.144C36.2129 15.784 35.3809 16.104 34.4209 16.104C33.4289 16.104 32.5809 15.784 31.8769 15.144C31.1729 14.504 30.8209 13.64 30.8209 12.552C30.8209 11.432 31.1729 10.552 31.8769 9.912C32.5809 9.272 33.4289 8.952 34.4209 8.952C35.3809 8.952 36.2129 9.272 36.9169 9.912C37.6209 10.552 37.9729 11.432 37.9729 12.552ZM43.3665 32.472C43.3665 30.616 43.6545 28.888 44.2305 27.288C44.8065 25.656 45.6225 24.248 46.6785 23.064C47.7665 21.88 49.0785 20.952 50.6145 20.28C52.1505 19.608 53.8785 19.272 55.7985 19.272C58.1665 19.272 60.4065 19.704 62.5185 20.568L61.2705 25.32C60.5985 25.032 59.8305 24.792 58.9665 24.6C58.1345 24.408 57.2385 24.312 56.2785 24.312C54.0065 24.312 52.2785 25.032 51.0945 26.472C49.9105 27.88 49.3185 29.88 49.3185 32.472C49.3185 34.968 49.8785 36.952 50.9985 38.424C52.1185 39.864 54.0065 40.584 56.6625 40.584C57.6545 40.584 58.6305 40.488 59.5905 40.296C60.5505 40.104 61.3825 39.864 62.0865 39.576L62.9025 44.376C62.2625 44.696 61.2865 44.984 59.9745 45.24C58.6945 45.496 57.3665 45.624 55.9905 45.624C53.8465 45.624 51.9745 45.304 50.3745 44.664C48.8065 43.992 47.4945 43.08 46.4385 41.928C45.4145 40.744 44.6465 39.352 44.1345 37.752C43.6225 36.12 43.3665 34.36 43.3665 32.472ZM90.8711 11.736V16.968H80.6471V45H74.5511V16.968H64.3271V11.736H90.8711ZM102.106 40.92C103.898 40.92 105.258 40.824 106.186 40.632V34.2C105.866 34.104 105.402 34.008 104.794 33.912C104.186 33.816 103.514 33.768 102.778 33.768C102.138 33.768 101.482 33.816 100.81 33.912C100.17 34.008 99.5781 34.184 99.0341 34.44C98.5221 34.696 98.1061 35.064 97.7861 35.544C97.4661 35.992 97.3061 36.568 97.3061 37.272C97.3061 38.648 97.7381 39.608 98.6021 40.152C99.4661 40.664 100.634 40.92 102.106 40.92ZM101.626 19.272C103.546 19.272 105.162 19.512 106.474 19.992C107.786 20.472 108.826 21.144 109.594 22.008C110.394 22.872 110.954 23.928 111.274 25.176C111.626 26.392 111.802 27.736 111.802 29.208V44.424C110.906 44.616 109.546 44.84 107.722 45.096C105.93 45.384 103.898 45.528 101.626 45.528C100.122 45.528 98.7461 45.384 97.4981 45.096C96.2501 44.808 95.1781 44.344 94.2821 43.704C93.4181 43.064 92.7301 42.232 92.2181 41.208C91.7381 40.184 91.4981 38.92 91.4981 37.416C91.4981 35.976 91.7701 34.76 92.3141 33.768C92.8901 32.776 93.6581 31.976 94.6181 31.368C95.5781 30.728 96.6821 30.28 97.9301 30.024C99.2101 29.736 100.538 29.592 101.914 29.592C102.554 29.592 103.226 29.64 103.93 29.736C104.634 29.8 105.386 29.928 106.186 30.12V29.16C106.186 28.488 106.106 27.848 105.946 27.24C105.786 26.632 105.498 26.104 105.082 25.656C104.698 25.176 104.17 24.808 103.498 24.552C102.858 24.296 102.042 24.168 101.05 24.168C99.7061 24.168 98.4741 24.264 97.3541 24.456C96.2341 24.648 95.3221 24.872 94.6181 25.128L93.8981 20.424C94.6341 20.168 95.7061 19.912 97.1141 19.656C98.5221 19.4 100.026 19.272 101.626 19.272ZM117.523 32.472C117.523 30.616 117.811 28.888 118.387 27.288C118.963 25.656 119.779 24.248 120.835 23.064C121.923 21.88 123.235 20.952 124.771 20.28C126.307 19.608 128.035 19.272 129.955 19.272C132.323 19.272 134.563 19.704 136.675 20.568L135.427 25.32C134.755 25.032 133.987 24.792 133.123 24.6C132.291 24.408 131.395 24.312 130.435 24.312C128.163 24.312 126.435 25.032 125.251 26.472C124.067 27.88 123.475 29.88 123.475 32.472C123.475 34.968 124.035 36.952 125.155 38.424C126.275 39.864 128.163 40.584 130.819 40.584C131.811 40.584 132.787 40.488 133.747 40.296C134.707 40.104 135.539 39.864 136.243 39.576L137.059 44.376C136.419 44.696 135.443 44.984 134.131 45.24C132.851 45.496 131.523 45.624 130.147 45.624C128.003 45.624 126.131 45.304 124.531 44.664C122.963 43.992 121.651 43.08 120.595 41.928C119.571 40.744 118.803 39.352 118.291 37.752C117.779 36.12 117.523 34.36 117.523 32.472ZM165.027 11.736V16.968H154.803V45H148.707V16.968H138.483V11.736H165.027ZM189.431 32.424C189.431 34.408 189.143 36.216 188.567 37.848C187.991 39.48 187.175 40.872 186.119 42.024C185.063 43.176 183.783 44.072 182.279 44.712C180.807 45.352 179.175 45.672 177.383 45.672C175.591 45.672 173.959 45.352 172.487 44.712C171.015 44.072 169.751 43.176 168.695 42.024C167.639 40.872 166.807 39.48 166.199 37.848C165.623 36.216 165.335 34.408 165.335 32.424C165.335 30.44 165.623 28.648 166.199 27.048C166.807 25.416 167.639 24.024 168.695 22.872C169.783 21.72 171.063 20.84 172.535 20.232C174.007 19.592 175.623 19.272 177.383 19.272C179.143 19.272 180.759 19.592 182.231 20.232C183.735 20.84 185.015 21.72 186.071 22.872C187.127 24.024 187.943 25.416 188.519 27.048C189.127 28.648 189.431 30.44 189.431 32.424ZM183.479 32.424C183.479 29.928 182.935 27.96 181.847 26.52C180.791 25.048 179.303 24.312 177.383 24.312C175.463 24.312 173.959 25.048 172.871 26.52C171.815 27.96 171.287 29.928 171.287 32.424C171.287 34.952 171.815 36.952 172.871 38.424C173.959 39.896 175.463 40.632 177.383 40.632C179.303 40.632 180.791 39.896 181.847 38.424C182.935 36.952 183.479 34.952 183.479 32.424ZM194.023 32.568C194.023 30.36 194.343 28.424 194.983 26.76C195.655 25.096 196.535 23.72 197.623 22.632C198.711 21.512 199.959 20.68 201.367 20.136C202.775 19.56 204.215 19.272 205.687 19.272C209.143 19.272 211.831 20.344 213.751 22.488C215.703 24.632 216.679 27.832 216.679 32.088C216.679 32.408 216.663 32.776 216.631 33.192C216.631 33.576 216.615 33.928 216.583 34.248H200.023C200.183 36.264 200.887 37.832 202.135 38.952C203.415 40.04 205.255 40.584 207.655 40.584C209.063 40.584 210.343 40.456 211.495 40.2C212.679 39.944 213.607 39.672 214.279 39.384L215.047 44.136C214.727 44.296 214.279 44.472 213.703 44.664C213.159 44.824 212.519 44.968 211.783 45.096C211.079 45.256 210.311 45.384 209.479 45.48C208.647 45.576 207.799 45.624 206.935 45.624C204.727 45.624 202.807 45.304 201.175 44.664C199.543 43.992 198.199 43.08 197.143 41.928C196.087 40.744 195.303 39.368 194.791 37.8C194.279 36.2 194.023 34.456 194.023 32.568ZM210.871 29.976C210.871 29.176 210.759 28.424 210.535 27.72C210.311 26.984 209.975 26.36 209.527 25.848C209.111 25.304 208.583 24.888 207.943 24.6C207.335 24.28 206.599 24.12 205.735 24.12C204.839 24.12 204.055 24.296 203.383 24.648C202.711 24.968 202.135 25.4 201.655 25.944C201.207 26.488 200.855 27.112 200.599 27.816C200.343 28.52 200.167 29.24 200.071 29.976H210.871Z" fill="black"/>
</svg>
